<?xml version="1.0" encoding="utf-8"?>
<!-- Generator: $$$/GeneralStr/196=Adobe Illustrator 27.6.0, SVG Export Plug-In . SVG Version: 6.00 Build 0)  -->
<svg version="1.1" id="Ebene_1" xmlns="http://www.w3.org/2000/svg" xmlns:xlink="http://www.w3.org/1999/xlink" x="0px" y="0px"
	 viewBox="0 0 617.7 214.4" style="enable-background:new 0 0 617.7 214.4;" xml:space="preserve">
<style type="text/css">
	.st0{fill:#9933FF;}
	.st1{fill:#356CFC;}
	.st2{fill:#0F306E;}
</style>
<g>
	<g id="Bildmarke">
		<g>
			<path class="st0" d="M0,46.9c0-0.8,0.2-1.5,0.6-2.2l75.2,43.4c1.3,0.8,2.1,2.2,2.1,3.7v82.8l0,0v4c-0.7,0-1.5-0.2-2.1-0.6
				l-26.6-15.3c-2.6-1.5-4.3-4.3-4.3-7.4v-44.6c0-1.5-0.8-2.9-2.1-3.7l-7.7-4.5L4.2,84.1C1.6,82.6,0,79.8,0,76.8V46.9L0,46.9z"/>
			<path class="st1" d="M77.9,178.6c0.7,0,1.6-0.2,2.2-0.6l73.6-42.5c1.3-0.8,2.1-2.2,2.1-3.7V46.9c0-0.8-0.3-1.5-0.6-2.2l-33,19
				c0.4,0.6,0.6,1.4,0.6,2.2v47c0,1.5-0.8,2.9-2.1,3.7l-40.6,23.5c-0.7,0.4-1.5,0.6-2.2,0.6v38L77.9,178.6z"/>
			<path class="st2" d="M33.5,63.7c0.4-0.6,0.9-1.2,1.6-1.6l40.7-23.5c1.3-0.8,3-0.8,4.3,0l34.2,19.8l6.5,3.7
				c0.7,0.4,1.2,0.9,1.6,1.6l33-19c-0.4-0.6-0.9-1.2-1.6-1.6L80.2,0.6c-1.3-0.8-3-0.8-4.3,0L2.3,43.1c-0.7,0.4-1.2,0.9-1.6,1.6
				l32.9,19H33.5z"/>
		</g>
	</g>
	<g id="FHM">
		<g>
			<g>
				<path class="st2" d="M222.9,80.8h-10.1V44.4h24v8h-13.9v5.8h12.8V66h-12.8V80.8z"/>
				<path class="st2" d="M256.5,78.3c-1.7,2.3-5.8,3.1-7.6,3.1c-4.8,0-8.9-3.1-8.9-8.2s5.7-8.5,10.4-8.5s3,0,4.4,0.2
					c0-1.9-1.2-3.3-4.3-3.3s-4.4,0.6-8.3,1.8v-6.6c3.6-1.3,6.5-2.2,10.8-2.2s11.4,2.7,11.4,11.5v14.7H257L256.5,78.3L256.5,78.3z
					 M254.8,69.3c-0.8,0-1.5,0-1.8,0c-2.8,0-3.6,2.1-3.6,3.2s0.6,2.4,2.4,2.4s2.2-0.3,3-1.1L254.8,69.3L254.8,69.3z"/>
				<path class="st2" d="M269.4,68.1c0-8.6,7.4-13.5,13.9-13.5s7.7,0.8,9.5,1.3v6.9c-2.8-0.7-6.2-1-7.5-1c-4.6,0-6.2,3.3-6.2,6.2
					s1.9,6.1,6.2,6.1c1.3,0,4.7-0.3,7.5-1V80c-1.8,0.4-6,1.3-9.5,1.3c-6.6,0-13.9-4.8-13.9-13.3V68.1z"/>
				<path class="st2" d="M308,62.2v18.6h-9.6v-37h9.4v12.8c2.1-1.6,4.6-2,6.4-2c5.3,0,10.2,2.9,10.2,11.1v15.1h-9.8V67.1
					c0-3.2-0.3-5.9-3.3-5.9S308.7,61.6,308,62.2L308,62.2z"/>
				<path class="st2" d="M340.2,62.2v18.6h-9.6v-37h9.4v12.8c2.1-1.6,4.6-2,6.4-2c5.3,0,10.2,2.9,10.2,11.1v15.1h-9.8V67.1
					c0-3.2-0.3-5.9-3.3-5.9S340.9,61.6,340.2,62.2L340.2,62.2z"/>
				<path class="st2" d="M376.4,54.6c6.8,0,14.7,3.2,14.7,13.4s-6.4,13.4-14.6,13.4c-6.6,0.2-14.7-3.7-14.7-13.3
					S369.8,54.5,376.4,54.6z M376.4,61.7c-2.9,0-5.3,2.7-5.3,6.2s2.4,6.3,5.3,6.3s5.3-2.5,5.3-6.3S379.3,61.7,376.4,61.7z"/>
				<path class="st2" d="M395.2,68.1c0-8.6,7.4-13.5,13.9-13.5s7.7,0.8,9.5,1.3v6.9c-2.8-0.7-6.2-1-7.5-1c-4.6,0-6.2,3.3-6.2,6.2
					s1.9,6.1,6.2,6.1c1.3,0,4.7-0.3,7.5-1V80c-1.8,0.4-6,1.3-9.5,1.3c-6.6,0-13.9-4.8-13.9-13.3V68.1z"/>
				<path class="st2" d="M433.8,62.2v18.6h-9.6v-37h9.4v12.8c2.1-1.6,4.6-2,6.4-2c5.3,0,10.2,2.9,10.2,11.1v15.1h-9.8V67.1
					c0-3.2-0.3-5.9-3.3-5.9S434.5,61.6,433.8,62.2L433.8,62.2z"/>
				<path class="st2" d="M464.9,62.6c0,0.2,0,1,2.1,1.5c6,1.9,10.5,3,10.2,9.1c-0.6,6.8-5.8,8.1-12.2,8.1s-6.9-1.1-9.2-2.1v-6.5
					c2.6,1.2,7,2.1,9.4,2.1s2.9-0.4,2.9-1.4s-1.3-1.3-3-1.7l-2.9-0.8c-7-2.2-6.8-7.8-6.8-8.3c0-4.1,3.5-8,11.3-8s6.9,1.1,9.2,2.1
					v6.5c-2.5-1.1-5.9-1.9-8.2-1.9S465,62.3,464.9,62.6L464.9,62.6z"/>
				<path class="st2" d="M481.5,68.1c0-8.6,7.4-13.5,13.9-13.5s7.7,0.8,9.5,1.3v6.9c-2.8-0.7-6.2-1-7.5-1c-4.6,0-6.2,3.3-6.2,6.2
					s1.9,6.1,6.2,6.1c1.3,0,4.7-0.3,7.5-1V80c-1.8,0.4-6,1.3-9.5,1.3c-6.6,0-13.9-4.8-13.9-13.3V68.1z"/>
				<path class="st2" d="M520.1,62.2v18.6h-9.6v-37h9.4v12.8c2.1-1.6,4.6-2,6.4-2c5.3,0,10.2,2.9,10.2,11.1v15.1h-9.8V67.1
					c0-3.2-0.3-5.9-3.3-5.9S520.8,61.6,520.1,62.2L520.1,62.2z"/>
				<path class="st2" d="M560.2,78.3c-2.3,2.5-5.4,3.1-7.6,3.1c-4.8,0-10.3-1.5-10.3-12.2V55.3h9.9V69c0,4.6,1.2,5.5,3.3,5.5
					s2.3-0.5,3.1-1.2V55.2h9.6v25.6h-7.4L560.2,78.3L560.2,78.3z"/>
				<path class="st2" d="M583.2,71.9c0,0.6,0,1.9,1.6,1.9h3.5V81H584c-7.2,0-10.2-1.7-10.2-8.3V43.3h9.5L583.2,71.9L583.2,71.9z"/>
				<path class="st2" d="M591.6,67.9c0-8.4,6.2-13.3,13.1-13.3c6.9,0,13,5.2,13,13.6v2.3h-16.1c0.2,1.8,1.8,4.1,5.7,4.1
					s6.5-0.7,8.7-1.3v6.2c-3.7,1-6.9,1.8-11,1.8C597.4,81.3,591.5,77.1,591.6,67.9L591.6,67.9z M607.9,65.6c0.1-1.6-0.5-4.1-3.2-4.1
					c-2.7,0-3.4,2.5-3.3,4.1H607.9z"/>
			</g>
			<g>
				<path class="st2" d="M230.7,131.1c-2.3,2.5-5.4,3.1-8,3.1s-11.7-2.4-11.7-13.7s6-13.1,11.9-13.1s4.5,0.7,6.1,2V96.1h9.6v37.5
					h-7.4L230.7,131.1L230.7,131.1z M225.3,127.1c1.6,0,2.9-0.5,3.7-1.1v-10.8c-1-0.6-2.2-1-3.3-1c-3.5,0-5.5,3.3-5.5,6.4
					s2.1,6.3,5.1,6.3V127.1z"/>
				<path class="st2" d="M242.7,120.7c0-8.4,6.2-13.3,13.1-13.3s13,5.2,13,13.6v2.3h-16.1c0.2,1.8,1.8,4.1,5.7,4.1s6.5-0.7,8.7-1.3
					v6.2c-3.7,1-6.9,1.8-11,1.8C248.5,134.1,242.6,129.9,242.7,120.7L242.7,120.7z M259,118.4c0.1-1.6-0.5-4.1-3.2-4.1
					s-3.4,2.5-3.3,4.1H259z"/>
				<path class="st2" d="M282.9,115.4c0,0.2,0,1,2.1,1.5c6,1.9,10.5,3,10.2,9.1c-0.6,6.8-5.8,8.1-12.2,8.1s-6.9-1.1-9.2-2.1v-6.5
					c2.6,1.2,7,2.1,9.4,2.1s2.9-0.4,2.9-1.4s-1.3-1.3-3-1.7l-2.9-0.8c-7-2.2-6.8-7.8-6.8-8.3c0-4.1,3.5-8,11.3-8s6.9,1.1,9.2,2.1
					v6.5c-2.5-1.1-5.9-1.9-8.2-1.9S283,115.1,282.9,115.4L282.9,115.4z"/>
				<path class="st2" d="M325.2,130.4c-2.2-5.8-4.3-11.3-7-16.1l-1.3,19.3h-10l3.1-36.4h9c3.2,5.7,7,12.8,10,21.7
					c3.1-8.8,6.8-16,10-21.7h9l3.1,36.4h-10l-1.3-19.3c-2.6,4.8-4.8,10.2-7,16.1H325.2z"/>
				<path class="st2" d="M360.3,96.1c4.1,0,5,1.9,5,4.4s-1.2,4.4-5,4.4s-5-1.9-5-4.4S356.3,96.1,360.3,96.1z M355.6,133.6V108h9.5
					v25.6H355.6z"/>
				<path class="st2" d="M369.7,114.3V108h3.8v-5.3l9.6-2.9v8.2h4.8v6.3h-4.8v10.6c0,0.6,0,1.9,1.6,1.9h3.4v7h-4.2
					c-7.2,0-10.4-1.7-10.4-8.3v-11.1h-3.8L369.7,114.3z"/>
				<path class="st2" d="M387.4,114.3V108h3.8v-5.3l9.6-2.9v8.2h4.8v6.3h-4.8v10.6c0,0.6,0,1.9,1.6,1.9h3.4v7h-4.2
					c-7.2,0-10.4-1.7-10.4-8.3v-11.1h-3.8L387.4,114.3z"/>
				<path class="st2" d="M408.5,120.7c0-8.4,6.2-13.3,13.1-13.3s13,5.2,13,13.6v2.3h-16.1c0.2,1.8,1.8,4.1,5.7,4.1s6.5-0.7,8.7-1.3
					v6.2c-3.7,1-6.9,1.8-11,1.8C414.3,134.1,408.4,129.9,408.5,120.7L408.5,120.7z M424.8,118.4c0.1-1.6-0.5-4.1-3.2-4.1
					s-3.4,2.5-3.3,4.1H424.8z"/>
				<path class="st2" d="M448.4,124.7c0,0.6,0,1.9,1.6,1.9h3.5v7.2h-4.3c-7.2,0-10.2-1.7-10.2-8.3V96.1h9.5L448.4,124.7L448.4,124.7
					z"/>
				<path class="st2" d="M466.7,115.4c0,0.2,0,1,2.1,1.5c6,1.9,10.5,3,10.2,9.1c-0.6,6.8-5.8,8.1-12.2,8.1s-6.9-1.1-9.2-2.1v-6.5
					c2.6,1.2,7,2.1,9.4,2.1s2.9-0.4,2.9-1.4s-1.3-1.3-3-1.7l-2.9-0.8c-7-2.2-6.8-7.8-6.8-8.3c0-4.1,3.5-8,11.3-8s6.9,1.1,9.2,2.1
					v6.5c-2.5-1.1-5.9-1.9-8.2-1.9S466.8,115.1,466.7,115.4L466.7,115.4z"/>
				<path class="st2" d="M482.3,114.3V108h3.8v-5.3l9.6-2.9v8.2h4.8v6.3h-4.8v10.6c0,0.6,0,1.9,1.6,1.9h3.4v7h-4.2
					c-7.2,0-10.4-1.7-10.4-8.3v-11.1h-3.8L482.3,114.3z"/>
				<path class="st2" d="M521,131.1c-1.7,2.3-5.8,3.1-7.6,3.1c-4.8,0-8.9-3.1-8.9-8.2s5.7-8.5,10.4-8.5c4.7,0,3,0,4.4,0.2
					c0-1.9-1.2-3.3-4.3-3.3c-3.1,0-4.4,0.6-8.3,1.8v-6.6c3.6-1.3,6.5-2.2,10.8-2.2c4.3,0,11.4,2.7,11.4,11.5v14.7h-7.4L521,131.1
					L521,131.1z M519.2,122.2c-0.8,0-1.5,0-1.8,0c-2.8,0-3.6,2.1-3.6,3.2s0.6,2.4,2.4,2.4s2.2-0.3,3-1.1L519.2,122.2L519.2,122.2z"
					/>
				<path class="st2" d="M559.3,119.7v13.9h-9.9v-13.7c0-4.6-1.2-5.7-3.2-5.7s-2.2,0.5-3.1,1.2v18.2h-9.6V108h9l0.4,2.1
					c2.1-2,4.5-2.7,6.8-2.7C553.1,107.4,559.4,109,559.3,119.7L559.3,119.7z"/>
				<path class="st2" d="M583.3,131.1c-2.3,2.5-5.4,3.1-8,3.1s-11.7-2.4-11.7-13.7s6-13.1,11.9-13.1s4.5,0.7,6.1,2V96.1h9.6v37.5
					h-7.4L583.3,131.1L583.3,131.1z M577.9,127.1c1.6,0,2.9-0.5,3.7-1.1v-10.8c-1-0.6-2.2-1-3.3-1c-3.5,0-5.5,3.3-5.5,6.4
					s2.1,6.3,5.1,6.3V127.1z"/>
				<path class="st2" d="M605.3,115.4c0,0.2,0,1,2.1,1.5c6,1.9,10.5,3,10.2,9.1c-0.6,6.8-5.8,8.1-12.2,8.1s-6.9-1.1-9.2-2.1v-6.5
					c2.6,1.2,7,2.1,9.4,2.1s2.9-0.4,2.9-1.4s-1.3-1.3-3-1.7l-2.9-0.8c-7-2.2-6.8-7.8-6.8-8.3c0-4.1,3.5-8,11.3-8
					c7.8,0,6.9,1.1,9.2,2.1v6.5c-2.5-1.1-5.9-1.9-8.2-1.9C605.8,114.1,605.4,115.1,605.3,115.4L605.3,115.4z"/>
			</g>
		</g>
	</g>
	<g id="Ort">
		<g>
			<path class="st2" d="M214.9,169.3v-13.5h2.8v12.8c0,8.2,4.8,7.9,6.3,7.9s6.3,0.3,6.3-7.9v-12.8h2.8v13.5c0,9.4-6.4,9.8-9.1,9.8
				S214.9,178.7,214.9,169.3z"/>
			<path class="st2" d="M254.3,155.8h2.9v23H254c-3.4-6.6-6.4-12.5-11.2-19.5v19.5h-2.9v-23h3.8c4.8,6.8,7.6,12,10.7,18L254.3,155.8
				L254.3,155.8z"/>
			<path class="st2" d="M264.1,178.8v-23h2.9v23H264.1z"/>
			<path class="st2" d="M287.3,155.8h3.1l-7.9,23h-3l-7.9-23h3.1l6.4,19.7l6.4-19.7H287.3z"/>
			<path class="st2" d="M297.5,174c0,1.2,0.5,2.3,2.6,2.3h8.5v2.5h-9c-3.4,0-4.9-1.1-5-4.4v-18.6h14v2.5h-11.1v7.3h10.3v2.5h-10.3
				v5.8V174z"/>
			<path class="st2" d="M327.8,178.8c-1.1-2-3-4.8-4.8-7.3c-1.2-1.7-1.7-2.2-2.9-2.2h-2.9v9.5h-2.9v-23h9c3.7,0,6.6,2.2,6.6,6.6
				s-2.4,6-4.8,6.6c-0.3,0-0.6,0.1-0.9,0.1c2.6,2.5,5.4,6.9,6.9,9.6L327.8,178.8L327.8,178.8z M323.6,166.9c1.8,0,3.6-0.9,3.6-4.4
				s-1.6-4-4.1-4h-5.9v8.5h6.4V166.9z"/>
			<path class="st2" d="M335,174.8c1.3,0.6,3.9,1.8,6.9,1.8s5.4-0.9,5.6-3.8c0-2.6-3.4-3.5-7.9-5c-5.3-1.8-5-6-5-6
				c0.1-3.9,3-6.3,8.8-6.3s5,0.8,6,1.3v2.6c-2.2-0.8-3.8-1.3-6-1.3c-4,0-5.7,1.8-5.8,3.9c0,0-0.2,2.1,2.9,3.1l1.3,0.5
				c5,1.6,8.9,3,8.6,7.5c-0.4,4.8-3.8,6.1-8.5,6.1s-5.2-0.9-6.9-1.6L335,174.8L335,174.8z"/>
			<path class="st2" d="M355.8,178.8v-23h2.9v23H355.8z"/>
			<path class="st2" d="M370.4,178.8v-20.4h-7.2v-2.5h17.3v2.5h-7.2v20.4H370.4L370.4,178.8z"/>
			<path class="st2" d="M392.7,178.8h-2.9v-9.9l-7.6-13.1h3.4l5.6,10.3l5.6-10.3h3.3l-7.5,13v9.9L392.7,178.8z"/>
			<path class="st2" d="M423,179.2c-7,0-11.6-4.6-11.6-11.8s6.1-11.9,11.5-11.9s11.5,3.3,11.5,11.9s-4.6,11.8-11.6,11.8l0,0H423z
				 M431.6,167.4c0-6.6-4.6-9.5-8.7-9.5s-8.7,2.9-8.7,9.5s3.5,9.3,8.7,9.3S431.6,172.8,431.6,167.4z"/>
			<path class="st2" d="M443,178.8h-2.9v-23h12.7v2.5H443v7.3h9.1v2.5H443v10.6V178.8z"/>
			<path class="st2" d="M212.8,213.9c2.2-7.6,4.3-14.3,8.3-23h3.2c4,8.6,6,15.3,8.3,23h-2.9l-2.1-7h-9.8c-0.7,2.3-1.4,4.6-2.1,7
				H212.8z M218.5,204.6h8.3c-1.1-3.6-2.5-7.2-4.1-11C221,197.4,219.7,201,218.5,204.6z"/>
			<path class="st2" d="M240,204.6v9.4h-2.9v-23h9.5c2.6,0,6.2,2.2,6.2,6.6s-4.2,7-6.4,7h-6.5H240z M246.6,202
				c1.2,0,3.5-0.9,3.5-4.4s-2-4-3.4-4h-6.6v8.5h6.5V202z"/>
			<path class="st2" d="M260.8,204.6v9.4h-2.9v-23h9.5c2.6,0,6.2,2.2,6.2,6.6s-4.2,7-6.4,7h-6.5H260.8z M267.4,202
				c1.2,0,3.5-0.9,3.5-4.4s-2-4-3.4-4h-6.6v8.5h6.5V202z"/>
			<path class="st2" d="M281.5,209.1c0,1.2,0.5,2.3,2.6,2.3h8.7v2.5h-9.2c-3.4,0-4.9-1.1-5-4.4v-18.6h2.9V209.1z"/>
			<path class="st2" d="M297.3,213.9v-23h2.9v23H297.3z"/>
			<path class="st2" d="M309.9,209.1c0,1.2,0.5,2.3,2.6,2.3h8.5v2.5h-9c-3.4,0-4.9-1.1-5-4.4v-18.6h14v2.5h-11.1v7.3h10.3v2.5h-10.3
				v5.8V209.1z"/>
			<path class="st2" d="M329.5,213.9h-2.9v-23h7.6c5.5,0,10.5,3.9,10.5,11.5s-5.1,11.4-10.5,11.4h-4.7L329.5,213.9z M332.8,211.4
				c5.8,0,8.9-3,8.9-8.9s-2.8-9-8.9-9h-3.3v17.9H332.8z"/>
			<path class="st2" d="M357.8,210c1.3,0.6,3.9,1.8,6.9,1.8s5.4-0.9,5.6-3.8c0-2.6-3.4-3.5-7.9-5c-5.3-1.8-5-6-5-6
				c0.1-3.9,3-6.3,8.8-6.3s5,0.8,6,1.3v2.6c-2.2-0.8-3.8-1.3-6-1.3c-4,0-5.7,1.8-5.8,3.9c0,0-0.2,2.1,2.9,3.1l1.3,0.5
				c5,1.6,8.9,3,8.6,7.5c-0.4,4.8-3.8,6.1-8.5,6.1s-5.2-0.9-6.9-1.6L357.8,210L357.8,210z"/>
			<path class="st2" d="M395.2,213.6c-1.1,0.3-3.7,0.7-6.9,0.7c-5.5,0-11.1-4.1-11.1-11.8s5.6-11.9,11.1-11.9s5.7,0.4,6.9,0.7v2.4
				c-3.8-0.6-4.5-0.6-6-0.6c-5.1,0-9,3.5-9,9.3s4.3,9.2,9,9.2s2.1,0,6-0.6V213.6L395.2,213.6z"/>
			<path class="st2" d="M400.5,213.9v-23h2.9v23H400.5z"/>
			<path class="st2" d="M413,209.1c0,1.2,0.5,2.3,2.6,2.3h8.5v2.5h-9c-3.4,0-4.9-1.1-5-4.4v-18.6h14v2.5H413v7.3h10.3v2.5H413v5.8
				V209.1z"/>
			<path class="st2" d="M444.3,191h2.9v23H444c-3.4-6.6-6.4-12.5-11.2-19.5V214h-2.9v-23h3.8c4.8,6.8,7.6,12,10.7,18L444.3,191
				L444.3,191z"/>
			<path class="st2" d="M470.7,213.6c-1.1,0.3-3.7,0.7-6.9,0.7c-5.5,0-11.1-4.1-11.1-11.8s5.6-11.9,11.1-11.9s5.7,0.4,6.9,0.7v2.4
				c-3.8-0.6-4.5-0.6-6-0.6c-5.1,0-9,3.5-9,9.3s4.3,9.2,9,9.2s2.1,0,6-0.6V213.6L470.7,213.6z"/>
			<path class="st2" d="M478.7,209.1c0,1.2,0.5,2.3,2.6,2.3h8.5v2.5h-9c-3.4,0-4.9-1.1-5-4.4v-18.6h14v2.5h-11.1v7.3H489v2.5h-10.3
				v5.8V209.1z"/>
			<path class="st2" d="M494.5,210c1.3,0.6,3.9,1.8,6.9,1.8s5.4-0.9,5.6-3.8c0-2.6-3.4-3.5-7.9-5c-5.3-1.8-5-6-5-6
				c0.1-3.9,3-6.3,8.8-6.3s5,0.8,6,1.3v2.6c-2.2-0.8-3.8-1.3-6-1.3c-4,0-5.7,1.8-5.8,3.9c0,0-0.2,2.1,2.9,3.1l1.3,0.5
				c5,1.6,8.9,3,8.6,7.5c-0.4,4.8-3.8,6.1-8.5,6.1s-5.2-0.9-6.9-1.6L494.5,210L494.5,210z"/>
		</g>
	</g>
</g>
</svg>
